<svg width="65" height="13" viewBox="0 0 65 13" fill="none" xmlns="http://www.w3.org/2000/svg">
<path d="M59 12L64 7L59 2" stroke="#1B1A17" stroke-width="0.5"/>
<path d="M6 2L1 7L6 12" stroke="#1B1A17" stroke-width="0.5"/>
<path d="M30.176 12.24C29.48 12.24 28.872 12.052 28.352 11.676C27.832 11.3 27.428 10.736 27.14 9.984C26.852 9.224 26.708 8.296 26.708 7.2C26.708 6.104 26.852 5.18 27.14 4.428C27.428 3.668 27.832 3.1 28.352 2.724C28.872 2.348 29.48 2.16 30.176 2.16C30.872 2.16 31.48 2.348 32 2.724C32.52 3.1 32.924 3.668 33.212 4.428C33.5 5.18 33.644 6.104 33.644 7.2C33.644 8.296 33.5 9.224 33.212 9.984C32.924 10.736 32.52 11.3 32 11.676C31.48 12.052 30.872 12.24 30.176 12.24ZM30.176 11.964C30.776 11.964 31.248 11.672 31.592 11.088C31.936 10.504 32.108 9.592 32.108 8.352V6.036C32.108 4.804 31.936 3.896 31.592 3.312C31.248 2.728 30.776 2.436 30.176 2.436C29.576 2.436 29.104 2.728 28.76 3.312C28.416 3.896 28.244 4.804 28.244 6.036V8.352C28.244 9.584 28.416 10.496 28.76 11.088C29.104 11.672 29.576 11.964 30.176 11.964ZM35.0155 12V11.76L35.8555 11.64V2.76L35.0155 2.64V2.4H37.0555V11.64L37.8955 11.76V12H35.0155Z" fill="#1B1A17" fill-opacity="0.82"/>
</svg>
